<mxfile host="app.diagrams.net" agent="Mozilla/5.0 (Windows NT 10.0; Win64; x64) AppleWebKit/537.36 (KHTML, like Gecko) Chrome/135.0.0.0 Safari/537.36" version="26.2.14">
  <diagram name="Page-1" id="rHsQWTbGOgab_UMKQwIw">
    <mxGraphModel dx="3324" dy="467" grid="1" gridSize="10" guides="1" tooltips="1" connect="1" arrows="1" fold="1" page="1" pageScale="1" pageWidth="850" pageHeight="1100" math="0" shadow="0">
      <root>
        <mxCell id="0" />
        <mxCell id="1" parent="0" />
        <mxCell id="KgPdh_fEtPb9r7KRroM1-1" value="Virtual Switch:&lt;br&gt;EDS_Internal&lt;div&gt;&lt;br&gt;&lt;/div&gt;" style="rounded=0;whiteSpace=wrap;html=1;fillColor=#1ba1e2;fontColor=#ffffff;strokeColor=#006EAF;" vertex="1" parent="1">
          <mxGeometry x="-2280" y="140" width="120" height="60" as="geometry" />
        </mxCell>
        <mxCell id="KgPdh_fEtPb9r7KRroM1-2" value="Hyper-V Host (EDS Workstation)" style="text;html=1;align=center;verticalAlign=middle;resizable=0;points=[];autosize=1;strokeColor=none;fillColor=none;" vertex="1" parent="1">
          <mxGeometry x="-2520" y="10" width="200" height="30" as="geometry" />
        </mxCell>
        <mxCell id="KgPdh_fEtPb9r7KRroM1-3" value="Virtual Switch:&amp;nbsp;&lt;div&gt;EDS_Bridge (External)&lt;/div&gt;" style="rounded=0;whiteSpace=wrap;html=1;fillColor=#fa6800;fontColor=#000000;strokeColor=#C73500;" vertex="1" parent="1">
          <mxGeometry x="-2020" y="140" width="120" height="60" as="geometry" />
        </mxCell>
        <mxCell id="KgPdh_fEtPb9r7KRroM1-4" value="Ubuntu VM" style="rounded=0;whiteSpace=wrap;html=1;" vertex="1" parent="1">
          <mxGeometry x="-2255" y="260" width="70" height="40" as="geometry" />
        </mxCell>
        <mxCell id="KgPdh_fEtPb9r7KRroM1-5" value="Kali VM" style="rounded=0;whiteSpace=wrap;html=1;" vertex="1" parent="1">
          <mxGeometry x="-2255" y="360" width="70" height="40" as="geometry" />
        </mxCell>
        <mxCell id="KgPdh_fEtPb9r7KRroM1-6" value="Parrot VM&lt;div&gt;&lt;br&gt;&lt;/div&gt;" style="rounded=0;whiteSpace=wrap;html=1;" vertex="1" parent="1">
          <mxGeometry x="-2255" y="460" width="70" height="40" as="geometry" />
        </mxCell>
        <mxCell id="KgPdh_fEtPb9r7KRroM1-7" value="&lt;div&gt;&lt;br&gt;&lt;/div&gt;Host Ethernet&lt;div&gt;&lt;br&gt;&lt;/div&gt;" style="rounded=0;whiteSpace=wrap;html=1;fillColor=#76608a;fontColor=#ffffff;strokeColor=#432D57;" vertex="1" parent="1">
          <mxGeometry x="-2020" y="290" width="120" height="60" as="geometry" />
        </mxCell>
        <mxCell id="KgPdh_fEtPb9r7KRroM1-8" value="" style="endArrow=classic;startArrow=classic;html=1;rounded=0;exitX=0.5;exitY=0;exitDx=0;exitDy=0;" edge="1" parent="1">
          <mxGeometry width="50" height="50" relative="1" as="geometry">
            <mxPoint x="-2220.42" y="260" as="sourcePoint" />
            <mxPoint x="-2220.42" y="200" as="targetPoint" />
            <Array as="points" />
          </mxGeometry>
        </mxCell>
        <mxCell id="KgPdh_fEtPb9r7KRroM1-9" value="" style="endArrow=classic;startArrow=classic;html=1;rounded=0;exitX=0.5;exitY=1;exitDx=0;exitDy=0;entryX=0.5;entryY=0;entryDx=0;entryDy=0;" edge="1" parent="1" source="KgPdh_fEtPb9r7KRroM1-4" target="KgPdh_fEtPb9r7KRroM1-5">
          <mxGeometry width="50" height="50" relative="1" as="geometry">
            <mxPoint x="-2305" y="270" as="sourcePoint" />
            <mxPoint x="-2305" y="210" as="targetPoint" />
            <Array as="points" />
          </mxGeometry>
        </mxCell>
        <mxCell id="KgPdh_fEtPb9r7KRroM1-10" value="" style="endArrow=classic;startArrow=classic;html=1;rounded=0;exitX=0.5;exitY=0;exitDx=0;exitDy=0;" edge="1" parent="1">
          <mxGeometry width="50" height="50" relative="1" as="geometry">
            <mxPoint x="-2220.42" y="460" as="sourcePoint" />
            <mxPoint x="-2220.42" y="400" as="targetPoint" />
            <Array as="points" />
          </mxGeometry>
        </mxCell>
        <mxCell id="KgPdh_fEtPb9r7KRroM1-11" value="" style="endArrow=classic;startArrow=classic;html=1;rounded=0;exitX=0.5;exitY=0;exitDx=0;exitDy=0;entryX=0.5;entryY=1;entryDx=0;entryDy=0;" edge="1" parent="1" target="KgPdh_fEtPb9r7KRroM1-3">
          <mxGeometry width="50" height="50" relative="1" as="geometry">
            <mxPoint x="-1960.34" y="290" as="sourcePoint" />
            <mxPoint x="-1960" y="210" as="targetPoint" />
            <Array as="points" />
          </mxGeometry>
        </mxCell>
      </root>
    </mxGraphModel>
  </diagram>
</mxfile>
